<?xml version="1.0" encoding="UTF-8"?>
<svg xmlns="http://www.w3.org/2000/svg" xmlns:xlink="http://www.w3.org/1999/xlink" width="40px" height="40px" viewBox="0 0 40 40" version="1.1">
<g id="surface1">
<path style=" stroke:none;fill-rule:nonzero;fill:rgb(80%,80%,80%);fill-opacity:1;" d="M 20.761719 28.125 C 22.589844 28.125 24.074219 27.351562 24.074219 26.398438 C 24.074219 25.445312 22.589844 25.453125 20.761719 25.453125 C 18.933594 25.453125 17.449219 25.445312 17.449219 26.398438 C 17.449219 27.351562 18.933594 28.125 20.761719 28.125 "/>
<path style=" stroke:none;fill-rule:nonzero;fill:rgb(80%,80%,80%);fill-opacity:1;" d="M 34.683594 18.214844 C 32.515625 18.214844 30.753906 19.976562 30.753906 22.148438 C 30.753906 23.410156 31.355469 24.535156 32.28125 25.253906 C 30.414062 29.890625 25.875 33.175781 20.574219 33.175781 C 17.933594 33.175781 15.484375 32.359375 13.453125 30.96875 C 13.972656 30.082031 14.269531 29.054688 14.269531 27.953125 C 14.269531 24.648438 11.589844 21.96875 8.285156 21.96875 C 8.199219 21.96875 8.117188 21.972656 8.03125 21.976562 C 7.980469 21.507812 7.949219 21.03125 7.949219 20.550781 C 7.949219 18.441406 8.472656 16.457031 9.386719 14.710938 C 11.53125 10.210938 16.234375 7.089844 21.695312 7.089844 C 26.714844 7.089844 31.089844 9.730469 33.429688 13.652344 C 33.125 13.964844 32.933594 14.394531 32.933594 14.867188 C 32.933594 15.835938 33.71875 16.617188 34.683594 16.617188 C 35.652344 16.617188 36.433594 15.835938 36.433594 14.867188 C 36.433594 14.039062 35.855469 13.34375 35.082031 13.164062 C 34.878906 12.765625 34.660156 12.375 34.421875 11.992188 C 35.050781 11.285156 35.441406 10.355469 35.441406 9.335938 C 35.441406 7.113281 33.640625 5.3125 31.417969 5.3125 C 30.347656 5.3125 29.382812 5.734375 28.660156 6.417969 C 26.277344 5.046875 23.515625 4.261719 20.574219 4.261719 C 17.699219 4.261719 15 5.015625 12.652344 6.328125 C 11.941406 5.695312 11.011719 5.3125 9.988281 5.3125 C 7.765625 5.3125 5.964844 7.113281 5.964844 9.335938 C 5.964844 10.277344 6.289062 11.140625 6.832031 11.828125 C 5.226562 14.351562 4.289062 17.339844 4.289062 20.550781 C 4.289062 21.484375 4.371094 22.402344 4.523438 23.296875 C 3.167969 24.394531 2.296875 26.074219 2.296875 27.953125 C 2.296875 31.261719 4.976562 33.941406 8.285156 33.941406 C 9.125 33.941406 9.925781 33.765625 10.652344 33.453125 C 13.402344 35.570312 16.84375 36.835938 20.574219 36.835938 C 27.695312 36.835938 33.753906 32.242188 35.960938 25.863281 C 37.503906 25.332031 38.617188 23.871094 38.617188 22.148438 C 38.617188 19.976562 36.855469 18.214844 34.683594 18.214844 "/>
<path style=" stroke:none;fill-rule:nonzero;fill:rgb(80%,80%,80%);fill-opacity:1;" d="M 15.957031 18.367188 C 16.679688 17.992188 17.570312 18.273438 17.945312 18.996094 C 17.96875 19.046875 17.984375 19.101562 18.007812 19.152344 C 18.285156 17.296875 17.726562 15.6875 16.566406 15.320312 C 15.191406 14.886719 13.492188 16.371094 12.773438 18.644531 C 12.050781 20.914062 12.585938 23.109375 13.964844 23.546875 C 15.207031 23.941406 16.714844 22.757812 17.523438 20.847656 C 17.457031 20.898438 17.390625 20.945312 17.316406 20.984375 C 16.589844 21.363281 15.703125 21.082031 15.328125 20.355469 C 14.953125 19.632812 15.234375 18.742188 15.957031 18.367188 "/>
<path style=" stroke:none;fill-rule:nonzero;fill:rgb(80%,80%,80%);fill-opacity:1;" d="M 27.558594 23.546875 C 28.9375 23.109375 29.46875 20.914062 28.75 18.644531 C 28.03125 16.371094 26.332031 14.882812 24.953125 15.320312 C 23.796875 15.6875 23.238281 17.300781 23.515625 19.152344 C 23.535156 19.101562 23.550781 19.046875 23.578125 19 C 23.953125 18.273438 24.84375 17.992188 25.566406 18.367188 C 26.289062 18.742188 26.570312 19.632812 26.195312 20.355469 C 25.820312 21.082031 24.929688 21.363281 24.207031 20.984375 C 24.132812 20.945312 24.0625 20.898438 24 20.847656 C 24.808594 22.757812 26.3125 23.941406 27.558594 23.546875 "/>
</g>
</svg>
