<?xml version="1.0" encoding="UTF-8"?>
<svg xmlns="http://www.w3.org/2000/svg" width="16px" height="16px" viewBox="0 0 16 16" version="1.1">
<g id="surface1">
<path style=" stroke:none;fill-rule:nonzero;fill:rgb(80%,80%,80%);fill-opacity:1;" d="M 8.304688 11.25 C 9.035156 11.25 9.628906 10.941406 9.628906 10.558594 C 9.628906 10.179688 9.035156 10.179688 8.304688 10.179688 C 7.574219 10.179688 6.980469 10.179688 6.980469 10.558594 C 6.980469 10.941406 7.574219 11.25 8.304688 11.25 "/>
<path style=" stroke:none;fill-rule:nonzero;fill:rgb(80%,80%,80%);fill-opacity:1;" d="M 13.875 7.285156 C 13.007812 7.285156 12.300781 7.992188 12.300781 8.859375 C 12.300781 9.363281 12.542969 9.8125 12.914062 10.101562 C 12.164062 11.957031 10.351562 13.269531 8.230469 13.269531 C 7.171875 13.269531 6.195312 12.945312 5.382812 12.386719 C 5.589844 12.03125 5.707031 11.621094 5.707031 11.179688 C 5.707031 9.859375 4.636719 8.789062 3.3125 8.789062 C 3.28125 8.789062 3.246094 8.789062 3.210938 8.789062 C 3.191406 8.601562 3.179688 8.414062 3.179688 8.21875 C 3.179688 7.375 3.390625 6.582031 3.753906 5.882812 C 4.613281 4.085938 6.492188 2.835938 8.679688 2.835938 C 10.6875 2.835938 12.4375 3.890625 13.371094 5.460938 C 13.25 5.585938 13.171875 5.757812 13.171875 5.945312 C 13.171875 6.335938 13.488281 6.648438 13.875 6.648438 C 14.261719 6.648438 14.574219 6.335938 14.574219 5.945312 C 14.574219 5.617188 14.34375 5.335938 14.03125 5.265625 C 13.953125 5.105469 13.863281 4.949219 13.769531 4.796875 C 14.019531 4.515625 14.175781 4.140625 14.175781 3.734375 C 14.175781 2.84375 13.457031 2.125 12.566406 2.125 C 12.140625 2.125 11.753906 2.292969 11.464844 2.566406 C 10.511719 2.019531 9.40625 1.703125 8.230469 1.703125 C 7.078125 1.703125 6 2.007812 5.0625 2.53125 C 4.777344 2.277344 4.40625 2.125 3.996094 2.125 C 3.105469 2.125 2.386719 2.84375 2.386719 3.734375 C 2.386719 4.109375 2.515625 4.457031 2.734375 4.730469 C 2.089844 5.742188 1.714844 6.9375 1.714844 8.21875 C 1.714844 8.59375 1.75 8.960938 1.808594 9.320312 C 1.265625 9.757812 0.917969 10.429688 0.917969 11.179688 C 0.917969 12.503906 1.992188 13.578125 3.3125 13.578125 C 3.648438 13.578125 3.96875 13.507812 4.261719 13.382812 C 5.359375 14.226562 6.738281 14.734375 8.230469 14.734375 C 11.078125 14.734375 13.5 12.898438 14.382812 10.34375 C 15 10.132812 15.445312 9.546875 15.445312 8.859375 C 15.445312 7.992188 14.742188 7.285156 13.875 7.285156 "/>
<path style=" stroke:none;fill-rule:nonzero;fill:rgb(80%,80%,80%);fill-opacity:1;" d="M 6.382812 7.347656 C 6.671875 7.195312 7.027344 7.308594 7.179688 7.597656 C 7.1875 7.617188 7.195312 7.640625 7.203125 7.660156 C 7.3125 6.917969 7.089844 6.273438 6.625 6.128906 C 6.078125 5.953125 5.398438 6.546875 5.109375 7.457031 C 4.820312 8.367188 5.035156 9.242188 5.585938 9.417969 C 6.082031 9.578125 6.6875 9.101562 7.007812 8.339844 C 6.984375 8.359375 6.957031 8.378906 6.925781 8.394531 C 6.636719 8.546875 6.28125 8.433594 6.132812 8.140625 C 5.980469 7.851562 6.09375 7.496094 6.382812 7.347656 "/>
<path style=" stroke:none;fill-rule:nonzero;fill:rgb(80%,80%,80%);fill-opacity:1;" d="M 11.023438 9.417969 C 11.574219 9.242188 11.789062 8.367188 11.5 7.457031 C 11.210938 6.546875 10.53125 5.953125 9.980469 6.128906 C 9.519531 6.273438 9.296875 6.921875 9.40625 7.660156 C 9.414062 7.640625 9.421875 7.617188 9.429688 7.601562 C 9.582031 7.308594 9.9375 7.195312 10.226562 7.347656 C 10.515625 7.496094 10.628906 7.851562 10.476562 8.140625 C 10.328125 8.433594 9.972656 8.546875 9.683594 8.394531 C 9.652344 8.378906 9.625 8.359375 9.601562 8.339844 C 9.921875 9.101562 10.523438 9.578125 11.023438 9.417969 "/>
</g>
</svg>
